# xmcd
#
# Track frame offsets: 
#        150
#        18080
#        36104
#        52265
#        73009
#        86724
#        104267
#        120331
#        139227
#        155121
#        170522
#        184500
#        199813
#        214764
#        232117
#        251176
#        264391
#        280280
#
# Disc length: 3991 seconds
#
# Revision: 2
# Processed by: cddbd v1.5.2PL0 Copyright (c) Steve Scherf et al.
# Submitted via: ExactAudioCopy v1.3
#
DISCID=0d0f9512
DTITLE=ΠΑΝΤΕΛΗΣ ΠΑΝΤΕΛΙΔΗΣ - ΓΙΑ ΠΑΝΤΑ
DYEAR=2016
DGENRE=Greek
TTITLE0=ΘΥΜΑΜΑΙ
TTITLE1=ΤΗΣ ΚΑΡΔΙΑΣ ΜΟΥ ΤΟ ΓΡΑΜΜΕΝΟ
TTITLE2=ΓΙΝΕΤΑΙ
TTITLE3=ΕΙΧΑ ΚΑΠΟΤΕ ΜΙΑ ΑΓΑΠΗ
TTITLE4=ΟΝΕΙΡΟ ΖΩ
TTITLE5=ΔΕΝ ΤΑΙΡΙΑΖΕΤΕ ΣΟΥ ΛΕΩ
TTITLE6=ΜΟΛΙΣ ΧΩΡΙΣΕΣ
TTITLE7=ΣΥΝΟΔΕΥΟΜΑΙ
TTITLE8=ΛΙΩΜΑ ΣΕ ΓΚΡΕΜΟ
TTITLE9=ΝΑ ΣΟΥ ΠΩ
TTITLE10=ΨΕΥΤΙΚΑ ΦΕΓΓΑΡΙΑ
TTITLE11=ΠΑΡΑΜΥΘΙΑΖΟΜΑΙ
TTITLE12=ΤΑ ΣΧΟΙΝΙΑ ΣΟΥ
TTITLE13=ΣΚΟΥΠΙΣΕ ΤΑ ΠΟΔΙΑ ΣΟΥ ΚΑΙ ΠΕΡΑΣΕ
TTITLE14=ΔΕ ΣΕ ΣΥΓΧΩΡΩ (ΣΤΟ 'ΧΑ ΠΕΙ)
TTITLE15=ΠΑΡΑ ΠΟΛΥ
TTITLE16=ΚΙ ΕΓΩ Σ' ΑΓΑΠΩ
TTITLE17=ΠΙΝΩ ΑΠΟ 'ΚΕΙ ΨΗΛΑ ΓΙΑ ΣΕΝΑ
EXTD=
EXTT0=
EXTT1=
EXTT2=
EXTT3=
EXTT4=
EXTT5=
EXTT6=
EXTT7=
EXTT8=
EXTT9=
EXTT10=
EXTT11=
EXTT12=
EXTT13=
EXTT14=
EXTT15=
EXTT16=
EXTT17=
PLAYORDER=
